<svg width="40" height="40" viewBox="0 0 40 40" fill="none" xmlns="http://www.w3.org/2000/svg">
<path d="M20 22C25.5228 22 30 17.5228 30 12C30 6.47715 25.5228 2 20 2C14.4772 2 10 6.47715 10 12C10 17.5228 14.4772 22 20 22Z" fill="#00C9D3" fill-opacity="0.8"/>
<path d="M13 34C18.5228 34 23 29.5228 23 24C23 18.4772 18.5228 14 13 14C7.47715 14 3 18.4772 3 24C3 29.5228 7.47715 34 13 34Z" fill="#E24EA0" fill-opacity="0.8"/>
<path d="M27 34C32.5228 34 37 29.5228 37 24C37 18.4772 32.5228 14 27 14C21.4772 14 17 18.4772 17 24C17 29.5228 21.4772 34 27 34Z" fill="#FFC200" fill-opacity="0.8"/>
</svg>
